<?xml version="1.0" standalone="no"?>
<!DOCTYPE svg PUBLIC "-//W3C//DTD SVG 20010904//EN"
 "http://www.w3.org/TR/2001/REC-SVG-20010904/DTD/svg10.dtd">
<svg version="1.0" xmlns="http://www.w3.org/2000/svg"
 width="512.000000pt" height="512.000000pt" viewBox="0 0 512.000000 512.000000"
 preserveAspectRatio="xMidYMid meet">

<g transform="translate(0.000000,512.000000) scale(0.100000,-0.100000)"
fill="#edcd36" stroke="none">
<path d="M235 5106 c-22 -7 -54 -20 -70 -28 -48 -25 -120 -109 -141 -163 -19
-49 -19 -107 -19 -2360 l0 -2310 24 -52 c29 -66 111 -143 176 -169 49 -19 103
-19 2355 -19 2252 0 2306 0 2355 19 65 26 147 103 176 169 l24 52 0 2310 c0
2257 0 2311 -19 2360 -26 65 -103 147 -169 176 l-52 24 -1618 3 -1619 2 -34
-34 c-46 -46 -46 -86 0 -132 l34 -34 1593 0 c1581 0 1594 0 1627 -20 60 -37
62 -50 62 -460 l0 -370 -2360 0 -2360 0 0 378 c0 509 -27 472 345 472 261 0
291 5 315 49 13 25 13 77 0 102 -24 45 -53 49 -327 48 -179 0 -270 -4 -298
-13z m4685 -3016 c0 -1960 4 -1829 -62 -1870 -33 -20 -44 -20 -2298 -20 -2254
0 -2265 0 -2298 20 -66 41 -62 -90 -62 1870 l0 1780 2360 0 2360 0 0 -1780z"/>
<path d="M571 3566 c-52 -29 -50 2 -51 -929 0 -943 -2 -909 55 -935 35 -16
2292 -17 2328 -1 13 6 31 23 40 39 16 26 17 104 17 900 l0 872 -34 34 -34 34
-1148 0 c-935 -1 -1153 -3 -1173 -14z m2189 -808 c0 -342 -4 -618 -8 -613 -5
6 -103 159 -217 340 -115 182 -215 338 -223 347 -8 10 -30 20 -49 24 -67 13
-83 -3 -219 -220 -70 -110 -137 -216 -149 -234 l-22 -33 -213 336 c-118 185
-223 343 -234 351 -28 19 -86 17 -113 -4 -11 -9 -144 -210 -293 -447 -150
-236 -279 -439 -286 -450 -12 -16 -14 76 -14 603 l0 622 1020 0 1020 0 0 -622z
m-1104 -420 l281 -443 -560 -3 c-308 -1 -562 0 -564 2 -5 5 549 885 557 886 3
0 132 -199 286 -442z m799 -100 c116 -182 212 -335 213 -339 2 -5 -108 -9
-245 -9 l-248 0 -91 146 -92 147 81 126 c44 69 99 156 121 193 23 37 43 67 46
68 3 0 100 -149 215 -332z"/>
<path d="M3331 3566 c-59 -33 -67 -102 -17 -152 l34 -34 580 0 c345 0 591 4
606 10 35 13 60 56 59 98 -1 27 -9 43 -32 64 l-31 28 -588 0 c-468 -1 -592 -3
-611 -14z"/>
<path d="M3344 3020 c-30 -12 -64 -58 -64 -87 0 -32 26 -80 49 -93 13 -6 225
-10 614 -10 l594 0 26 25 c49 49 37 127 -23 157 -32 17 -82 18 -605 17 -313 0
-580 -4 -591 -9z"/>
<path d="M3327 2459 c-22 -13 -47 -61 -47 -93 0 -14 13 -40 29 -58 l29 -33
586 -3 c511 -2 590 0 616 13 61 32 72 111 21 157 l-31 28 -593 0 c-383 -1
-598 -4 -610 -11z"/>
<path d="M3314 1886 c-37 -37 -43 -70 -20 -115 8 -15 26 -32 41 -39 19 -9 179
-12 610 -12 l585 0 31 28 c23 21 31 37 32 64 1 42 -24 85 -59 98 -15 6 -261
10 -606 10 l-580 0 -34 -34z"/>
<path d="M802 1271 c-109 -41 -193 -118 -242 -223 -73 -157 -40 -339 84 -463
189 -189 500 -154 645 73 72 114 82 276 22 396 -43 88 -114 159 -198 199 -59
27 -81 32 -163 34 -75 3 -106 -1 -148 -16z m226 -200 c177 -91 155 -348 -34
-401 -201 -57 -358 190 -221 347 62 70 176 94 255 54z"/>
<path d="M1883 1271 c-191 -71 -309 -268 -274 -460 52 -279 343 -429 594 -306
72 36 159 126 195 202 24 52 27 69 27 168 0 108 -1 113 -37 187 -45 91 -103
148 -196 191 -58 27 -80 32 -162 34 -75 3 -106 -1 -147 -16z m238 -204 c68
-36 103 -93 107 -176 5 -80 -16 -132 -73 -179 -87 -71 -197 -68 -281 10 -116
107 -81 298 66 357 47 19 133 13 181 -12z"/>
<path d="M2975 1272 c-201 -69 -310 -246 -283 -457 16 -124 105 -248 220 -306
253 -128 547 21 599 303 35 193 -85 392 -278 459 -72 24 -189 25 -258 1z m244
-215 c77 -51 111 -136 91 -227 -21 -93 -115 -170 -210 -170 -177 0 -275 212
-165 356 60 78 197 98 284 41z"/>
<path d="M4065 1277 c-71 -24 -127 -58 -177 -108 -199 -199 -137 -549 118
-666 243 -111 514 18 580 277 47 185 -50 388 -225 472 -58 28 -78 32 -161 35
-60 2 -110 -2 -135 -10z m211 -206 c22 -10 55 -36 72 -57 58 -70 67 -150 26
-233 -79 -158 -306 -157 -383 2 -52 107 -7 232 104 290 41 22 130 21 181 -2z"/>
<path d="M1158 5091 c-27 -24 -33 -36 -33 -71 0 -35 6 -47 33 -71 36 -32 69
-36 112 -14 35 18 50 43 50 85 0 42 -15 67 -50 85 -43 22 -76 18 -112 -14z"/>
<path d="M637 4565 c-49 -49 -37 -127 23 -157 32 -17 91 -18 795 -18 704 0
763 1 795 18 60 30 72 108 23 157 l-26 25 -792 0 -792 0 -26 -25z"/>
<path d="M3269 4561 c-77 -78 7 -198 109 -155 65 27 76 129 19 169 -37 26 -94
19 -128 -14z"/>
<path d="M3807 4562 c-75 -78 10 -199 111 -156 38 15 66 70 56 109 -18 74
-115 101 -167 47z"/>
<path d="M4347 4562 c-50 -53 -30 -140 39 -162 69 -23 140 42 126 116 -14 72
-113 100 -165 46z"/>
</g>
</svg>
